<svg id="Layer_1" enable-background="new 0 0 497.003 497.003" height="512" viewBox="0 0 497.003 497.003" width="512" xmlns="http://www.w3.org/2000/svg"><g><g fill="#7b6c79"><path d="m346.193 183.408c-2.916 0-5.689-1.711-6.904-4.563-1.623-3.811.151-8.216 3.962-9.839l18.611-7.926c13.849-5.897 29.676-2.832 40.32 7.812 2.929 2.93 2.929 7.678 0 10.607-2.929 2.928-7.678 2.928-10.606 0-6.293-6.293-15.649-8.106-23.836-4.618l-18.611 7.926c-.959.408-1.956.601-2.936.601z"/><path d="m320.422 157.642c-.98 0-1.977-.193-2.935-.602-3.811-1.623-5.585-6.028-3.962-9.839l7.926-18.61c3.487-8.188 1.674-17.544-4.618-23.836-2.929-2.93-2.929-7.678 0-10.607 2.929-2.928 7.678-2.928 10.606 0 10.645 10.645 13.711 26.472 7.813 40.32l-7.926 18.61c-1.215 2.853-3.988 4.564-6.904 4.564z"/><path d="m340.248 268.532c-4.073 0-7.414-3.26-7.496-7.351-.083-4.142 3.208-7.565 7.349-7.647l29.124-.581 13.015-13.015c2.929-2.93 7.678-2.929 10.606-.001 2.929 2.93 2.929 7.678 0 10.606l-15.15 15.15c-1.37 1.37-3.217 2.157-5.154 2.195l-32.142.642c-.051.002-.101.002-.152.002z"/><path d="m307.495 390.279c-1.368 0-2.751-.374-3.994-1.157-3.503-2.21-4.552-6.842-2.342-10.345l12.644-20.045-14.545-25.603c-2.046-3.602-.785-8.18 2.816-10.227 3.601-2.045 8.18-.784 10.226 2.816l16.764 29.509c1.366 2.405 1.298 5.367-.178 7.706l-15.041 23.845c-1.425 2.263-3.86 3.501-6.35 3.501z"/><path d="m215.117 403.543c-2.894 0-5.651-1.685-6.88-4.508-1.654-3.798.084-8.217 3.882-9.87l22.802-9.93 1.234-27.359c.186-4.139 3.686-7.383 7.83-7.154 4.138.187 7.341 3.692 7.154 7.83l-1.444 32.031c-.129 2.859-1.874 5.396-4.498 6.538l-27.09 11.796c-.974.425-1.99.626-2.99.626z"/><path d="m235.302 163.58c-.051 0-.102 0-.152-.002-4.141-.082-7.432-3.506-7.349-7.647l.641-32.143c.039-1.938.825-3.784 2.195-5.154l15.15-15.149c2.929-2.928 7.678-2.929 10.606.001 2.929 2.929 2.929 7.677 0 10.606l-13.015 13.014-.581 29.124c-.081 4.089-3.423 7.35-7.495 7.35z"/><path d="m166.9 198.053c-1.256 0-2.528-.315-3.698-.979l-25.603-14.545-20.045 12.645c-3.504 2.21-8.136 1.161-10.345-2.343-2.21-3.503-1.162-8.135 2.342-10.345l23.845-15.041c2.34-1.476 5.302-1.543 7.706-.178l29.509 16.764c3.602 2.046 4.863 6.625 2.816 10.227-1.381 2.43-3.917 3.795-6.527 3.795z"/><path d="m100.285 288.719c-1 0-2.015-.201-2.99-.626-3.798-1.653-5.536-6.072-3.882-9.87l11.796-27.09c1.143-2.624 3.68-4.369 6.539-4.498l32.032-1.443c4.144-.205 7.644 3.018 7.83 7.154.187 4.139-3.017 7.644-7.155 7.83l-27.36 1.233-9.929 22.802c-1.229 2.822-3.987 4.508-6.881 4.508z"/></g><path d="m92.012 92.012c-37.945 37.945-60.786 88.222-64.315 141.567l-.07 1.066h31.778l.071-.923c7.141-92.196 82.051-167.106 174.247-174.247l.923-.071v-31.777l-1.066.07c-53.346 3.53-103.623 26.371-141.568 64.315z" fill="#ff4756"/><path d="m437.527 233.723.071.923h31.778l-.07-1.066c-3.529-53.346-26.37-103.622-64.315-141.567-37.945-37.944-88.221-60.785-141.568-64.315l-1.066-.07v31.778l.923.071c92.196 7.14 167.106 82.05 174.247 174.246z" fill="#ff4756"/><path d="m59.476 263.28-.071-.923h-31.778l.07 1.066c3.529 53.346 26.37 103.622 64.315 141.567 37.945 37.944 88.221 60.785 141.568 64.315l1.066.07v-31.778l-.923-.071c-92.196-7.139-167.106-82.05-174.247-174.246z" fill="#ff4756"/><path d="m111.608 92.012c33.518-33.517 76.66-55.239 123.039-62.287v-2.099l-1.066.07c-53.347 3.53-103.623 26.371-141.568 64.315-37.945 37.945-60.786 88.222-64.315 141.567l-.07 1.066h19.595l.07-1.066c3.529-53.344 26.369-103.62 64.315-141.566z" fill="#fc2d39"/><path d="m111.608 404.991c-37.945-37.945-60.786-88.222-64.315-141.567l-.07-1.066h-19.596l.07 1.066c3.529 53.346 26.37 103.622 64.315 141.567 37.945 37.944 88.221 60.785 141.568 64.315l1.066.07v-2.099c-46.378-7.047-89.52-28.769-123.038-62.286z" fill="#fc2d39"/><path d="m437.527 263.28c-7.141 92.196-82.051 167.106-174.247 174.247l-.923.071v31.778l1.066-.07c53.347-3.53 103.623-26.371 141.568-64.315 37.945-37.945 60.786-88.222 64.315-141.567l.07-1.066h-31.778z" fill="#ff4756"/><path d="m310.829 185.501c8.788 8.788 15.525 18.854 20.222 29.607 1.911-1.289 3.731-2.774 5.423-4.466 14.131-14.131 14.217-36.955.193-50.979s-36.848-13.937-50.979.193c-1.692 1.692-3.177 3.512-4.466 5.423 10.754 4.698 20.819 11.435 29.607 20.222z" fill="#7b6c79"/><g><path d="m341.569 165.789c-1.38-2.172-3.008-4.231-4.902-6.125-14.024-14.024-36.848-13.937-50.979.193-1.692 1.692-3.177 3.512-4.466 5.423 6.982 3.049 13.666 6.974 19.906 11.746 9.705-12.006 26.037-16.567 40.441-11.237z" fill="#695d67"/></g><path d="m274.742 221.588c14.599-14.599 46.074 5.382 63.763 18.57-2.881-20.07-12.041-39.412-27.481-54.853-15.44-15.44-34.783-24.6-54.853-27.481 13.189 17.69 33.171 49.165 18.571 63.764z" fill="#695d67"/><g><g><path d="m294.57 172.086c-11.838-7.567-24.951-12.331-38.398-14.261 13.188 17.689 33.17 49.164 18.571 63.763 6.191-6.191 15.421-6.151 25.344-3.059 8.487-10.573 2.481-29.871-5.517-46.443z" fill="#554e56"/></g></g><path d="m260.515 158.551c-30.545-5.803-63.335 3.113-86.977 26.755-37.966 37.966-37.966 99.521 0 137.487 27.133-27.133 89.072-88.072 104.184-103.184 13.908-13.908-4.965-44.619-17.207-61.058z" fill="#ff4756"/><path d="m187.712 245.182c0-38.318 21.587-71.589 53.26-88.331-24.442.326-48.784 9.805-67.434 28.455-37.966 37.966-37.966 99.521 0 137.487 7.252-7.252 16.991-16.919 27.656-27.48-8.57-14.734-13.482-31.858-13.482-50.131z" fill="#fc2d39"/><g><path d="m248.502 86.095c-8.204 0-14.856-6.651-14.856-14.856v-56.383c0-8.205 6.651-14.856 14.856-14.856 8.204 0 14.856 6.651 14.856 14.856v56.384c-.001 8.204-6.652 14.855-14.856 14.855z" fill="#ff7f87"/></g><g><path d="m248.502 497.003c-8.204 0-14.856-6.651-14.856-14.856v-56.384c0-8.204 6.651-14.856 14.856-14.856 8.204 0 14.856 6.651 14.856 14.856v56.384c-.001 8.205-6.652 14.856-14.856 14.856z" fill="#ff7f87"/></g><g><path d="m71.24 263.357h-56.384c-8.205 0-14.856-6.651-14.856-14.855s6.651-14.856 14.856-14.856h56.384c8.204 0 14.856 6.651 14.856 14.856s-6.652 14.855-14.856 14.855z" fill="#ff7f87"/></g><g><path d="m482.148 263.357h-56.384c-8.204 0-14.856-6.651-14.856-14.856s6.651-14.856 14.856-14.856h56.384c8.204 0 14.856 6.651 14.856 14.856s-6.652 14.856-14.856 14.856z" fill="#ff7f87"/></g><path d="m251.313 71.24v-56.384c0-4.891 2.375-9.217 6.022-11.924-2.471-1.834-5.52-2.932-8.833-2.932-8.205 0-14.856 6.651-14.856 14.856v56.384c0 8.204 6.651 14.856 14.856 14.856 3.313 0 6.363-1.098 8.833-2.932-3.648-2.707-6.022-7.033-6.022-11.924z" fill="#ff656f"/><path d="m251.313 482.148v-56.384c0-4.891 2.375-9.217 6.022-11.924-2.471-1.834-5.52-2.932-8.833-2.932-8.205 0-14.856 6.651-14.856 14.856v56.384c0 8.204 6.651 14.856 14.856 14.856 3.313 0 6.363-1.098 8.833-2.932-3.648-2.707-6.022-7.033-6.022-11.924z" fill="#ff656f"/><path d="m43.048 248.502c0-8.205 6.651-14.856 14.856-14.856h-43.048c-8.205 0-14.856 6.651-14.856 14.856 0 8.204 6.651 14.856 14.856 14.856h43.048c-8.205-.001-14.856-6.652-14.856-14.856z" fill="#ff656f"/><path d="m453.956 248.502c0-8.205 6.651-14.856 14.856-14.856h-43.048c-8.204 0-14.856 6.651-14.856 14.856 0 8.204 6.651 14.856 14.856 14.856h43.048c-8.205-.001-14.856-6.652-14.856-14.856z" fill="#ff656f"/><circle cx="193.099" cy="242.089" fill="#695d67" r="19.279"/><circle cx="234.162" cy="197.794" fill="#695d67" r="13.921"/><path d="m337.78 235.816c-16.439-12.242-46.15-31.115-60.058-17.207-15.112 15.112-77.051 77.051-104.184 104.184 37.966 37.966 99.521 37.966 137.487 0 23.642-23.643 32.558-56.432 26.755-86.977z" fill="#ff656f"/><path d="m201.129 295.202c-10.64 10.64-20.354 20.354-27.591 27.591 28.184 28.184 69.36 35.425 104.243 21.765-32.782-3.189-60.919-22.227-76.652-49.356z" fill="#ff4756"/><circle cx="254.242" cy="303.231" fill="#695d67" r="19.279"/><circle cx="298.536" cy="262.169" fill="#695d67" r="13.921"/><path d="m196.475 255.721c-7.529-7.529-7.529-19.735 0-27.264 1.539-1.539 3.279-2.745 5.128-3.655-7.201-3.542-16.146-2.335-22.136 3.655-7.529 7.529-7.529 19.735 0 27.264 5.99 5.99 14.936 7.197 22.136 3.655-1.849-.909-3.589-2.116-5.128-3.655z" fill="#554e56"/><path d="m237.351 207.638c-5.437-5.437-5.437-14.251 0-19.688 1.007-1.007 2.131-1.825 3.327-2.459-5.26-2.788-11.931-1.97-16.36 2.459-5.437 5.437-5.437 14.251 0 19.688 4.429 4.429 11.1 5.248 16.36 2.459-1.196-.634-2.32-1.452-3.327-2.459z" fill="#554e56"/><path d="m257.617 316.864c-7.529-7.529-7.529-19.735 0-27.264 1.539-1.539 3.279-2.745 5.128-3.655-7.2-3.542-16.146-2.335-22.136 3.655-7.529 7.529-7.529 19.735 0 27.264 5.99 5.99 14.936 7.197 22.136 3.655-1.849-.91-3.589-2.117-5.128-3.655z" fill="#554e56"/><path d="m301.726 272.013c-5.437-5.437-5.437-14.251 0-19.688 1.007-1.007 2.131-1.826 3.327-2.459-5.26-2.788-11.931-1.97-16.36 2.459-5.437 5.437-5.437 14.251 0 19.688 4.429 4.429 11.1 5.248 16.36 2.459-1.196-.634-2.32-1.452-3.327-2.459z" fill="#554e56"/></g></svg>